<!-- Generated by IcoMoon.io -->
<svg version="1.1" xmlns="http://www.w3.org/2000/svg" width="53" height="32" viewBox="0 0 53 32">
<path fill="#fff" d="M21.333 22.857l13.84-6.857-13.84-6.857v13.714zM52.16 4.96c0.347 1.074 0.587 2.514 0.747 4.343 0.187 1.829 0.267 3.406 0.267 4.777l0.16 1.92c0 5.006-0.427 8.686-1.173 11.040-0.667 2.057-2.213 3.383-4.613 3.954-1.253 0.297-3.547 0.503-7.067 0.64-3.467 0.16-6.64 0.229-9.573 0.229l-4.24 0.137c-11.173 0-18.133-0.366-20.88-1.006-2.4-0.571-3.947-1.897-4.613-3.954-0.347-1.074-0.587-2.514-0.747-4.343-0.187-1.829-0.267-3.406-0.267-4.777l-0.16-1.92c0-5.006 0.427-8.686 1.173-11.040 0.667-2.057 2.213-3.383 4.613-3.954 1.253-0.297 3.547-0.503 7.067-0.64 3.467-0.16 6.64-0.229 9.573-0.229l4.24-0.137c11.173 0 18.133 0.366 20.88 1.006 2.4 0.571 3.947 1.897 4.613 3.954z"></path>
</svg>
